<?xml version="1.0" encoding="UTF-8"?>
<svg  viewBox="2 2 70 70" version="1.1" xmlns="http://www.w3.org/2000/svg" xmlns:xlink="http://www.w3.org/1999/xlink">
    <title>交换</title>
    <g id="去中心化-深色" stroke="none" stroke-width="1" fill="none" fill-rule="evenodd">
        <g id="1兑换" transform="translate(-343.000000, -432.000000)" fill-rule="nonzero">
            <g id="交换" transform="translate(380.000000, 469.000000) rotate(90.000000) translate(-380.000000, -469.000000) translate(343.000000, 432.000000)">
                <rect id="Rectangle" fill="#000000" opacity="0" x="0" y="0"></rect>
                <path d="M37,1.32142857 C17.2940447,1.32142857 1.32142857,17.2940447 1.32142857,37 C1.32142857,56.7059553 17.2940447,72.6785714 37,72.6785714 C56.7059553,72.6785714 72.6785714,56.7059553 72.6785714,37 C72.6785714,17.2940447 56.7059553,1.32142857 37,1.32142857 Z" id="Shape" fill-opacity="0.1" ></path>
                <path d="M53.9396045,40.6558625 C50.2851598,49.2336368 40.6099153,53.7519228 31.5583161,50.8655627 L30.0370879,55.5 L21.1428571,45.6097159 L34.1811233,42.8801601 L32.8405774,46.9628787 C33.0620589,47.0441846 33.2835404,47.1254905 33.5108504,47.1951813 C41.2160752,49.7098572 49.3934053,46.8351122 53.9396045,40.6558625 Z M44.4508708,18.5 L54.1785714,27.5656098 L41.4317282,31.4276409 L42.4050812,27.2578088 C42.1777712,27.1939256 41.9504612,27.1358499 41.7173228,27.0835819 C33.8197588,25.2541987 25.9280232,28.8316591 21.9471847,35.3884006 C24.8322727,26.5318631 34.0703826,21.1830953 43.3376348,23.2622037 L44.4508708,18.5 Z" id="Combined-Shape" fill="#3876F9"></path>
            </g>
        </g>
    </g>
</svg>
