<svg id="图层_1" data-name="图层 1" xmlns="http://www.w3.org/2000/svg" viewBox="0 0 30 30"><defs><style>.cls-1{fill:#3756df;}.cls-2{fill:#fff;}</style></defs><title>Tether Wallet </title><circle class="cls-1" cx="15" cy="15" r="15"/><path class="cls-2" d="M16.47,6.62A10.62,10.62,0,0,1,17.9,8.18a1.34,1.34,0,0,0,1.1.58A6,6,0,0,1,20.47,9a3,3,0,0,1,2.27,3.89,7,7,0,0,0,0,3.74A3.08,3.08,0,0,1,20,20.83a2.89,2.89,0,0,0-2.17,1.29,4.82,4.82,0,0,1-1,1.05,2.65,2.65,0,0,1-3.24.22A6.22,6.22,0,0,1,12,21.91a1.59,1.59,0,0,0-1.27-.67,7.49,7.49,0,0,1-2.22-.51A3,3,0,0,1,6.77,18a7.22,7.22,0,0,1,.49-1.57,1.93,1.93,0,0,0-.11-2.3,3.16,3.16,0,0,1-.5-2.3A3.12,3.12,0,0,1,9.78,9.11a2.36,2.36,0,0,0,2.11-1.29,3.75,3.75,0,0,1,1.78-1.55A2.51,2.51,0,0,1,16.47,6.62ZM12.76,8.21a8,8,0,0,0-1.92,3.84l-.58,2.77h0l.24-4.22a2.23,2.23,0,0,0-2.69,2.27,3.88,3.88,0,0,0,.62,1.84,12.89,12.89,0,0,0,3.51,3.62,3.59,3.59,0,0,1,.29.22,11.71,11.71,0,0,1-3.38-2,2.34,2.34,0,0,0,1.71,3.79,8.23,8.23,0,0,0,3.86-.48l2.17-.72.07.15L13.19,21a2.28,2.28,0,0,0,4,.51c.13-.15.25-.3.36-.46a8.41,8.41,0,0,0,1.37-3.46l.48-2.46h.08l-.21,4.28a2.22,2.22,0,0,0,2.58-2.09,3.86,3.86,0,0,0-.3-1.49A8.32,8.32,0,0,0,19,12.58c-.33-.27-.67-.53-1-.79a11.32,11.32,0,0,1,1.46.78l1.43.86a2.21,2.21,0,0,0-.86-3.49,5.5,5.5,0,0,0-1.52-.38,7.37,7.37,0,0,0-3.28.51l-.43.14h0L13,10.83,13,10.69,16.6,8.93A2.24,2.24,0,0,0,12.76,8.21ZM14.91,12a2.92,2.92,0,1,1-3,2.86A2.92,2.92,0,0,1,14.91,12Zm-.08.67a3.27,3.27,0,0,1-2.22,2.26h0a3.46,3.46,0,0,1,2.3,2.24,3.35,3.35,0,0,1,2.21-2.27A3.44,3.44,0,0,1,14.83,12.69Z"/></svg>